<svg id="Capa_1" enable-background="new 0 0 512 512" height="512" viewBox="0 0 512 512" width="512" xmlns="http://www.w3.org/2000/svg"><g><path d="m22.681 237.936 151-90.021c9.723-5.796 9.776-19.94 0-25.769l-151-90.021c-9.984-5.953-22.681 1.258-22.681 12.884v180.043c0 11.676 12.739 18.81 22.681 12.884z"/><path d="m497 271.009h-482c-8.284 0-15 6.716-15 15v60c0 8.284 6.716 15 15 15h482c8.284 0 15-6.716 15-15v-60c0-8.284-6.716-15-15-15z"/><path d="m497 392.009h-482c-8.284 0-15 6.716-15 15v60c0 8.284 6.716 15 15 15h482c8.284 0 15-6.716 15-15v-60c0-8.284-6.716-15-15-15z"/><path d="m497 150.009h-270.031c-8.284 0-15 6.716-15 15v60c0 8.284 6.716 15 15 15h270.031c8.284 0 15-6.716 15-15v-60c0-8.284-6.716-15-15-15z"/><path d="m497 30.009h-270.031c-8.284 0-15 6.716-15 15v60c0 8.284 6.716 15 15 15h270.031c8.284 0 15-6.716 15-15v-60c0-8.284-6.716-15-15-15z"/></g></svg>