<?xml version="1.0" ?><svg data-name="015_HEALTH" height="24" id="_015_HEALTH" viewBox="0 0 24 24" width="24" xmlns="http://www.w3.org/2000/svg"><title/><path d="M12,20.5c-4.29883,0-8.24072-3.02295-10.54395-8.08594a1.0003,1.0003,0,0,1,0-.82812C3.75928,6.52295,7.70117,3.5,12,3.5s8.24072,3.02295,10.54395,8.08594a1.001,1.001,0,0,1,.00049.82764,18.14035,18.14035,0,0,1-1.3916,2.52051,1,1,0,1,1-1.666-1.10645A15.86984,15.86984,0,0,0,20.52881,12C18.543,7.92041,15.37988,5.5,12,5.5S5.457,7.92041,3.47119,12C5.457,16.07959,8.62012,18.5,12,18.5a7.96437,7.96437,0,0,0,5.03613-1.91943,1.00015,1.00015,0,1,1,1.26465,1.5498A9.93941,9.93941,0,0,1,12,20.5Z"  /><path d="M12,16a4.00368,4.00368,0,0,1-3.92871-4.75586,1.00015,1.00015,0,0,1,1.96484.375A2.00021,2.00021,0,1,0,14,12a2.03417,2.03417,0,0,0-2.05273-1.99854,1.03928,1.03928,0,0,1-1.043-.94775.9632.9632,0,0,1,.90186-1.04883L12,8a4,4,0,0,1,0,8Z"  /></svg>