<svg width="140" height="34" viewBox="0 0 140 34" fill="none" xmlns="http://www.w3.org/2000/svg">
<path d="M41.6686 33.003L46.9238 33.0124L46.9507 18.0492L41.6956 18.0397L41.6686 33.003ZM41.5874 16.6842L47.0638 16.6941L47.0708 12.8219L41.5944 12.812L41.5874 16.6842ZM56.5644 33.3617C60.2154 33.3683 62.6801 31.6579 62.686 28.3665C62.6913 25.4071 60.3421 24.4071 57.3842 23.5444C55.8085 23.0713 54.9516 22.7932 54.9527 22.2124C54.9535 21.7422 55.3689 21.4387 56.171 21.4401C57.3604 21.4423 59.0466 21.9708 60.5939 22.831L62.3977 19.5152C60.6849 18.4058 58.418 17.7656 56.233 17.7616C52.7757 17.7554 50.2279 19.521 50.2222 22.7017C50.2166 25.7718 52.5659 26.7441 55.5239 27.5515C57.0997 27.9692 57.9289 28.2473 57.9279 28.8281C57.9268 29.409 57.5115 29.6848 56.5987 29.6832C55.0498 29.6804 53.1701 29.0962 51.4573 27.9591L49.4878 31.1363C51.5595 32.6336 54.0475 33.3572 56.5644 33.3617ZM72.8124 33.4186C76.1037 33.4246 78.0976 32.0452 79.4843 30.001L75.9209 27.4223C75.0894 28.3889 74.3416 28.996 73.0969 28.9938C71.3268 28.9906 70.1125 27.5225 70.1159 25.5864C70.1193 23.7056 71.2837 22.2141 73.1921 22.2176C74.3261 22.2196 75.1827 22.6914 75.9 23.6884L79.4172 21.1501C78.1486 19.1287 76.1042 17.7974 73.0341 17.7919C68.3045 17.7834 65.0067 21.3454 64.9991 25.5772C64.9914 29.8642 68.304 33.4105 72.8124 33.4186ZM86.3959 33.4155C88.3597 33.419 89.7716 32.6748 90.797 31.5426L90.7942 33.0915L95.994 33.1008L96.0095 24.499C96.0133 22.397 95.5459 20.8473 94.4139 19.7389C93.2267 18.5474 91.4024 17.908 88.7195 17.9032C86.1473 17.8985 84.3486 18.3655 82.6602 19.0539L83.7322 22.7621C85.0608 22.239 86.2783 21.9369 87.8548 21.9398C89.8739 21.9434 90.8404 22.8302 90.8376 24.3791L90.8371 24.628C89.9803 24.3222 88.6255 24.0432 87.2426 24.0407C83.7299 24.0344 81.3761 25.6343 81.3705 28.7321C81.365 31.7745 83.5471 33.4103 86.3959 33.4155ZM88.2826 30.1275C87.2039 30.1255 86.4306 29.5156 86.4324 28.4923C86.4345 27.3306 87.3209 26.5854 88.8422 26.5882C89.6166 26.5896 90.3631 26.7569 90.8882 26.9791L90.887 27.6706C90.8843 29.1641 89.8038 30.1302 88.2826 30.1275ZM105.381 33.4497C109.032 33.4562 111.497 31.7458 111.503 28.4545C111.508 25.495 109.159 24.4951 106.201 23.6323C104.625 23.1593 103.768 22.8812 103.769 22.3003C103.77 21.8301 104.186 21.5266 104.988 21.5281C106.177 21.5302 107.863 22.0588 109.41 22.919L111.214 19.6032C109.501 18.4938 107.235 17.8535 105.05 17.8496C101.592 17.8434 99.0445 19.6089 99.0387 22.7897C99.0332 25.8598 101.382 26.832 104.34 27.6395C105.916 28.0572 106.746 28.3353 106.744 28.9161C106.743 29.4969 106.328 29.7728 105.415 29.7711C103.866 29.7683 101.987 29.1841 100.274 28.047L98.3044 31.2242C100.376 32.7215 102.864 33.4451 105.381 33.4497ZM120.087 33.4762C123.738 33.4827 126.202 31.7723 126.208 28.481C126.214 25.5215 123.864 24.5216 120.906 23.6588C119.331 23.1858 118.474 22.9077 118.475 22.3268C118.476 21.8566 118.891 21.5531 119.693 21.5546C120.883 21.5567 122.569 22.0853 124.116 22.9455L125.92 19.6297C124.207 18.5203 121.94 17.88 119.755 17.8761C116.298 17.8699 113.75 19.6354 113.744 22.8162C113.739 25.8863 116.088 26.8585 119.046 27.666C120.622 28.0837 121.451 28.3618 121.45 28.9426C121.449 29.5234 121.034 29.7993 120.121 29.7976C118.572 29.7948 116.692 29.2106 114.98 28.0735L113.01 31.2507C115.082 32.748 117.57 33.4716 120.087 33.4762ZM134.792 33.475C136.258 33.4776 137.503 33.148 138.445 32.6242L138.452 28.503C137.815 28.8061 137.151 28.9986 136.46 28.9973C135.492 28.9956 135.022 28.5522 135.024 27.5012L135.033 22.4396L138.518 22.4459L138.526 18.2142L135.041 18.2079L135.048 14.4187L129.793 14.4092L129.786 18.1984L128.016 18.1952L128.008 22.427L129.778 22.4302L129.767 28.5151C129.761 32.083 131.639 33.4693 134.792 33.475Z" fill="#FF2800"/>
<path d="M13.9999 13C13.9999 12.4477 14.4477 12 14.9999 12H18.9999C19.5522 12 19.9999 12.4477 19.9999 13V33H15.9999C14.8954 33 13.9999 32.1046 13.9999 31V13Z" fill="#FF2800"/>
<path d="M19.5041 0.99252C24.6344 0.92188 29.5779 2.54114 33.2469 5.49407C36.9159 8.44701 39.01 12.4917 39.0685 16.7385C39.1269 20.9852 37.145 25.086 33.5587 28.1389C29.9724 31.1917 25.0754 32.9464 19.9451 33.0171L19.8836 28.5542C23.584 28.5032 27.1161 27.2375 29.7029 25.0356C32.2896 22.8336 33.7191 19.8758 33.677 16.8127C33.6348 13.7496 32.1244 10.8322 29.478 8.70233C26.8316 6.57243 23.266 5.40449 19.5656 5.45544L19.5041 0.99252Z" fill="#FF2800"/>
<path d="M20.0063 1L20.0439 5.46284L10.0946 5.5465C7.85394 5.56534 6.02223 3.76418 6.00339 1.52349V1.52349C6.00151 1.29942 6.18162 1.11625 6.40569 1.11436L20.0063 1Z" fill="#FF2800"/>
</svg>
