<?xml version="1.0" ?><svg height="48px" version="1.1" viewBox="0 0 48 48" width="48px" xmlns="http://www.w3.org/2000/svg" xmlns:xlink="http://www.w3.org/1999/xlink"><title/><desc/><g fill="none" fill-rule="evenodd" id="Page-1" stroke="none" stroke-width="1"><g id="Artboard-Copy" transform="translate(-407.000000, -429.000000)"><path d="M418,447 C416.895,447 416,447.895 416,449 L416,457 C416,458.104 416.895,459 418,459 L424.125,459 C426.259995,461.28542 427.881873,462.952303 428.990634,464.000651 C430.049072,465.001419 430.349426,465.001419 430.515442,465.001419 C431.640442,465.001419 432,464.105 432,463 L432,443 C432,441.896 431.638261,441 430.515442,441 C430.326612,441 430.053223,440.863403 429.033419,441.945337 C428.414276,442.602199 426.75747,444.287087 424.063,447 L418,447 Z M445.717,448.221 C445.424,447.926 444.947,447.926 444.654,448.221 L442,450.875 L439.344,448.221 C439.051,447.926 438.576,447.926 438.281,448.221 L437.219,449.283 C436.926,449.576 436.926,450.053 437.219,450.346 L439.873,453 L437.219,455.656 C436.928,455.949 436.928,456.424 437.219,456.719 L438.281,457.781 C438.576,458.074 439.051,458.074 439.344,457.781 L442,455.127 L444.654,457.781 C444.947,458.074 445.424,458.074 445.717,457.781 L446.779,456.719 C447.074,456.424 447.074,455.949 446.779,455.656 L444.125,453 L446.779,450.346 C447.074,450.053 447.074,449.576 446.779,449.283 L445.717,448.221 Z" fill="#000000" id="mute"/><g id="slices" transform="translate(47.000000, 9.000000)"/></g></g></svg>