<svg enable-background="new 0 0 26 26"  version="1.1" viewBox="0 0 24 24" fill="var(--color-text)"  xml:space="preserve" xmlns="http://www.w3.org/2000/svg" xmlns:xlink="http://www.w3.org/1999/xlink"><g><g><g><path d="M5.1,23.5c-0.6,0-1.2-0.2-1.7-0.5c-1.1-0.6-1.7-1.8-1.7-3V4c0-1.2,0.7-2.4,1.7-3c1.1-0.6,2.4-0.6,3.5,0l13.9,8     c1.1,0.6,1.7,1.8,1.7,3c0,1.2-0.7,2.4-1.7,3L6.8,23C6.3,23.3,5.7,23.5,5.1,23.5z M5.1,1.5c-0.4,0-0.9,0.1-1.2,0.3     C3,2.3,2.6,3.1,2.6,4v16c0,0.9,0.5,1.7,1.2,2.2c0.8,0.4,1.7,0.4,2.5,0l13.9-8c0.8-0.4,1.2-1.3,1.2-2.2c0-0.9-0.5-1.7-1.2-2.2     l-13.9-8C5.9,1.6,5.5,1.5,5.1,1.5z"/></g></g><g></g></g></svg>