              <svg xmlns="http://www.w3.org/2000/svg" viewBox="0 0 24 24">
                <path
                  clip-rule="evenodd"
                  d="M3 4C3 3.44772 3.44772 3 4 3H20C20.5523 3 21 3.44772 21 4V7.17157C21 7.96722 20.6839 8.73028 20.1213 9.29289L15.2929 14.1213C15.1054 14.3089 15 14.5632 15 14.8284V18.4605C15 19.5026 14.3536 20.4354 13.3778 20.8013L10.3511 21.9363C10.044 22.0515 9.69998 22.0087 9.43041 21.8219C9.16083 21.6351 9 21.328 9 21V14.8284C9 14.5632 8.89464 14.3089 8.70711 14.1213L3.87868 9.29289C3.31607 8.73028 3 7.96722 3 7.17157V4ZM5 5V7.17157C5 7.43679 5.10536 7.69114 5.29289 7.87868L10.1213 12.7071C10.6839 13.2697 11 14.0328 11 14.8284V19.557L12.6756 18.9287C12.8707 18.8555 13 18.6689 13 18.4605V14.8284C13 14.0328 13.3161 13.2697 13.8787 12.7071L18.7071 7.87868C18.8946 7.69114 19 7.43679 19 7.17157V5H5Z"
                />
              </svg>