<?xml version="1.0" ?><svg id="Icons" style="enable-background:new 0 0 32 32;" version="1.1" viewBox="0 0 32 32" xml:space="preserve" xmlns="http://www.w3.org/2000/svg" xmlns:xlink="http://www.w3.org/1999/xlink"><g><path d="M16,9c-2.2,0-4,1.8-4,4c0,1.9,1.3,3.4,3,3.9V29c0,0.6,0.4,1,1,1s1-0.4,1-1V16.9c1.7-0.4,3-2,3-3.9C20,10.8,18.2,9,16,9z"/><path d="M6,18c-2.2,0-4,1.8-4,4c0,1.9,1.3,3.4,3,3.9V29c0,0.6,0.4,1,1,1s1-0.4,1-1v-3.1c1.7-0.4,3-2,3-3.9C10,19.8,8.2,18,6,18z"/><path d="M30,16c0-2.2-1.8-4-4-4s-4,1.8-4,4c0,1.9,1.3,3.4,3,3.9V29c0,0.6,0.4,1,1,1s1-0.4,1-1v-9.1C28.7,19.4,30,17.9,30,16z"/><path d="M6,17c0.6,0,1-0.4,1-1V3c0-0.6-0.4-1-1-1S5,2.4,5,3v13C5,16.6,5.4,17,6,17z"/><path d="M16,8c0.6,0,1-0.4,1-1V3c0-0.6-0.4-1-1-1s-1,0.4-1,1v4C15,7.6,15.4,8,16,8z"/><path d="M26,11c0.6,0,1-0.4,1-1V3c0-0.6-0.4-1-1-1s-1,0.4-1,1v7C25,10.6,25.4,11,26,11z"/></g></svg>