<?xml version="1.0" ?><!DOCTYPE svg  PUBLIC '-//W3C//DTD SVG 1.1//EN'  'http://www.w3.org/Graphics/SVG/1.1/DTD/svg11.dtd'><svg height="512px" style="enable-background:new 0 0 512 512;" version="1.1" viewBox="0 0 512 512" width="512px" xml:space="preserve" xmlns="http://www.w3.org/2000/svg" xmlns:xlink="http://www.w3.org/1999/xlink"><g id="_x31_7-vk"><g><g><g><path d="M250.895,391.347h28.514c0,0,8.615-0.952,13.004-5.709c4.059-4.364,3.904-12.563,3.904-12.563      s-0.563-38.366,17.213-44.022c17.508-5.562,39.994,37.091,63.824,53.506c18.014,12.406,31.707,9.688,31.707,9.688l63.736-0.899      c0,0,33.342-2.062,17.535-28.349c-1.279-2.148-9.215-19.437-47.391-54.968c-39.967-37.204-34.604-31.164,13.537-95.492      c29.32-39.175,41.045-63.101,37.373-73.329c-3.49-9.749-25.049-7.175-25.049-7.175l-71.705,0.421c0,0-5.311-0.721-9.273,1.643      c-3.854,2.33-6.328,7.716-6.328,7.716s-11.361,30.321-26.512,56.108c-31.945,54.394-44.736,57.267-49.959,53.884      c-12.141-7.862-9.094-31.642-9.094-48.508c0-52.726,7.965-74.704-15.539-80.385c-7.818-1.885-13.541-3.142-33.492-3.348      c-25.594-0.272-47.277,0.088-59.531,6.097c-8.174,4.009-14.47,12.953-10.622,13.459c4.743,0.629,15.479,2.9,21.178,10.679      c7.369,10.017,7.098,32.569,7.098,32.569s4.232,62.048-9.875,69.77c-9.695,5.292-22.962-5.509-51.448-54.883      c-14.583-25.267-25.618-53.233-25.618-53.233s-2.117-5.197-5.905-7.98c-4.594-3.381-11.039-4.453-11.039-4.453l-68.175,0.413      c0,0-10.234,0.305-13.992,4.754c-3.338,3.984-0.268,12.176-0.268,12.176S72.09,274.148,132.522,337.276      C187.965,395.146,250.895,391.347,250.895,391.347L250.895,391.347z M250.895,391.347" style="fill:#1F8EEF;"/></g></g></g></g><g id="Layer_1"/></svg>